<svg id="LOGO" xmlns="http://www.w3.org/2000/svg" fill="#2165ad" width="800px" height="800px" viewBox="0 0 18 25">
    <path d="M18.05765,8.58949q-.50095-.061-.95075-.13135a20.271,20.271,0,0,1-4.09617-1.17037c-1.79652-.72941-5.50435-2.62414-5.53679-4.51189,0,0-.276-2.24984,3.68766-1.02217a7.34,7.34,0,0,0,6.1078,4.51857c.29061.03291.57514.00563.60519-.14515A9.20179,9.20179,0,0,0,2.75922,2.63158q-.06182.06706-.12141.13353a2.95581,2.95581,0,0,0-.82711,1.7826c-.00426.98475,1.14213,1.85214,2.54266,2.544l.008.00007A30.76,30.76,0,0,0,9.69415,9.12021v.00047c.1269.02254.13531.05.13505.08509-.00038.0514-.03631.05354-.093.07216A31.84019,31.84019,0,0,0,4.35142,11.286c-.00235.00114-2.55666,1.12673-2.55968,2.53574a2.94359,2.94359,0,0,0,.81894,1.78614c.03956.04486.07959.08954.1206.134a9.2016,9.2016,0,0,0,15.13008-3.4305c-.0294-.15074-.31384-.17906-.60458-.14776a7.34038,7.34038,0,0,0-6.1272,4.49263c-3.96886,1.21061-3.68324-1.038-3.68324-1.038-.00572-1.6071,3.07546-3.66523,5.56014-4.69666a21.30749,21.30749,0,0,1,5.14691-1.24692c.17458-.0139.2358-.16338.24353-.3092a2.1875,2.1875,0,0,0-.0214-.539A.31906.31906,0,0,0,18.05765,8.58949Z" />
    <path d="M5.31645,9.26845c-.00255,0,.09732-.02059.09745-.07216s-.12029-.08552-.12029-.08506V9.11076C4.7073,8.9031,3.869,8.564,3.15874,8.22229,1.87555,7.55243.86453,6.73116.86652,5.80592c.00017-.0813-.07834-.09359-.11726-.09367-.06753-.00015-.1085.10805-.1085.10805A9.2382,9.2382,0,0,0,.62631,12.5445s.04051.108.108.10814c.03892.00007.11749-.01187.11767-.09316.002-.93749,1.044-1.76425,2.35476-2.43331A14.34821,14.34821,0,0,1,5.31645,9.26845Z" />
</svg>
